<svg width="372" height="372" viewBox="0 0 372 372" fill="none" xmlns="http://www.w3.org/2000/svg">
<path fill-rule="evenodd" clip-rule="evenodd" d="M17.1643 192.787L23.3364 153.295L24.3615 150.796C41.2488 109.839 65.2825 62.6195 103.254 37.1378C132.229 17.6935 169.056 11.2828 203.336 14.7635L216.465 16.0797C240.988 18.5831 252.478 20.5613 277.895 34.0392C298.096 44.7514 326.945 80.1433 337.452 99.6415C346.978 117.32 356.024 163.286 354.959 183.56C352.593 228.589 346.726 239.558 323.307 279.921C299.887 320.285 260.77 345.463 214.805 360.058C168.84 374.653 115.16 366.798 82.6657 335.445L77.4609 330.436C64.4801 317.921 51.9762 305.295 45.4506 288.695C32.4169 255.541 15.13 228.797 17.1643 192.787Z" stroke="#291217" stroke-width="3"/>
</svg>
