<svg width="372" height="372" viewBox="0 0 372 372" fill="none" xmlns="http://www.w3.org/2000/svg">
<path fill-rule="evenodd" clip-rule="evenodd" d="M122.896 342.986L89.3357 321.211L87.4703 319.25C56.9412 287.036 23.6061 245.703 15.8136 200.435C9.86711 165.892 19.0301 129.452 36.1904 99.3859L42.7472 87.8641C55.0354 66.3612 61.5285 56.6147 84.2072 38.7661C102.232 24.5808 146.33 12.5175 168.427 10.8191C188.463 9.27957 234.143 19.7175 252.23 28.9642C292.402 49.5016 300.029 59.3641 327.352 97.3359C354.675 135.308 361.723 181.505 356.31 229.676C350.897 277.846 321.829 323.947 279.934 341.005L273.235 343.743C256.509 350.562 239.874 356.897 222.049 356.12C186.445 354.57 154.963 359.541 122.896 342.986Z" stroke="#291217" stroke-width="3"/>
</svg>
