<svg width="372" height="372" viewBox="0 0 372 372" fill="none" xmlns="http://www.w3.org/2000/svg">
<path fill-rule="evenodd" clip-rule="evenodd" d="M321.896 78.3061L341.28 113.142L342.007 115.737C353.848 158.322 363.902 210.228 349.625 253.632C338.732 286.751 313.648 314.463 284.498 332.832L273.344 339.881C252.482 353.011 242.214 358.53 213.909 363.587C191.413 367.605 146.949 357.552 126.697 348.697C108.336 340.668 72.9847 310.114 61.3755 293.525C35.5914 256.68 33.4799 244.447 27.151 198.308C20.8226 152.168 36.1873 108.298 63.4469 68.5285C90.7069 28.7593 137.83 1.88421 182.687 6.51894L189.864 7.25111C207.777 9.09439 225.383 11.3194 240.717 20.3471C271.345 38.3784 301.388 48.7537 321.896 78.3061Z" stroke="#291217" stroke-width="3"/>
</svg>
