<svg width="64" height="64" viewBox="0 0 64 64" fill="none" xmlns="http://www.w3.org/2000/svg">
<path d="M59.1956 18.4482C57.6701 15.6711 55.3462 13.1884 52.31 10.9541L51.8291 10.6052C49.8215 9.16951 47.735 7.94 44.3992 6.16311L43.3772 5.62127L41.1207 5.07803L38.3857 4.4105C37.9164 4.29943 37.5193 4.20907 37.0877 4.11464C36.9465 4.08375 36.7793 4.06227 36.5493 4.04602L35.9612 4.01739L35.8513 4.01313C35.1339 3.98423 34.3894 4.00326 33.6131 4.06794C32.1175 4.19243 30.5454 4.48299 28.7492 4.9443L28.0681 5.12336L27.3889 5.3107C26.0965 5.67567 24.7186 6.11275 22.714 6.77924L19.2806 7.9219C19.1315 7.97058 18.9836 8.01862 18.8298 8.06837C14.8212 9.3645 11.61 11.1476 9.22789 13.5615C7.23274 15.5832 5.65556 18.1518 4.58463 21.052C3.52992 23.9079 2.99198 26.9799 3.00009 30.0673C3.00895 33.4142 3.70904 36.8006 5.03595 39.9994C6.38182 43.2437 8.3475 46.2739 10.8046 48.9169C12.7441 51.0031 14.96 52.7715 18.5185 55.2264C20.623 56.6784 22.3772 57.6136 24.1888 58.1741C25.1051 58.4575 26.0931 58.6852 27.2648 58.8928L27.713 58.9697C29.4715 59.2625 30.4447 59.382 31.4775 59.3972C34.0204 59.4345 36.7444 59.1481 39.7345 58.571C41.1705 58.2939 42.2555 58.0233 43.2466 57.674C44.0407 57.3939 44.8184 57.0047 46.0152 56.3185C48.574 54.8516 50.9568 53.1674 53.0784 51.313C54.2049 50.3282 54.9944 49.5319 55.6256 48.7047C56.3833 47.712 57.1087 46.5535 57.8548 45.1783C58.7572 43.5143 59.3668 41.7669 60.0498 39.0761L60.5973 36.844C61.0037 35.1551 61.1905 34.2579 61.3488 33.1844C61.6054 31.443 61.7085 29.7118 61.6523 28.0151C61.5358 24.4904 60.7169 21.2184 59.1956 18.4482Z" fill="#291217"/>
<path fill-rule="evenodd" clip-rule="evenodd" d="M31.8216 40.2535C31.2359 40.8393 30.2861 40.8393 29.7003 40.2535C29.149 39.7022 29.1166 38.8285 29.603 38.2392L29.7003 38.1322L36.4182 31.4144L29.7003 24.6972C29.149 24.1459 29.1166 23.2721 29.603 22.6829L29.7003 22.5759C30.2517 22.0245 31.1254 21.9921 31.7146 22.4786L31.8216 22.5759L39.5998 30.354C40.1512 30.9054 40.1836 31.7791 39.6971 32.3684L39.5998 32.4754L31.8216 40.2535Z" fill="#F4F3E9"/>
</svg>
