<?xml version="1.0" encoding="UTF-8"?>
<svg width="151px" height="50px" viewBox="0 0 151 50" version="1.1" xmlns="http://www.w3.org/2000/svg" xmlns:xlink="http://www.w3.org/1999/xlink">
    <title>Logo Copy</title>
    <g id="Landing-Update" stroke="none" stroke-width="1" fill="none" fill-rule="evenodd">
        <g id="HHDL-Website-Scroll" transform="translate(-200.000000, -97.000000)" fill="#FFFFFF">
            <g id="Logo-Copy" transform="translate(200.000000, 97.000000)">
                <g id="Ten-Percent-Happier" transform="translate(63.400000, 0.280000)" fill-rule="nonzero">
                    <polygon id="Path" points="9.232 1.136 9.232 0 0 0 0 1.136 3.984 1.136 3.984 10.72 5.264 10.72 5.264 1.136"></polygon>
                    <polygon id="Path" points="20.864 9.568 14.304 9.568 14.304 5.904 20.384 5.904 20.384 4.768 14.304 4.768 14.304 1.136 20.848 1.136 20.848 0 13.04 0 13.04 10.72 20.864 10.72"></polygon>
                    <polygon id="Path" points="34.592 0 33.328 0 33.328 8.608 26.32 0 25.232 0 25.232 10.72 26.496 10.72 26.496 2.208 33.504 10.72 34.592 10.72"></polygon>
                    <path d="M1.008,19 L1.008,29.72 L2.272,29.72 L2.272,25.656 L5.68,25.656 C7.968,25.656 9.408,24.296 9.408,22.328 C9.408,20.36 7.968,19 5.68,19 L1.008,19 Z M2.272,24.52 L2.272,20.136 L5.68,20.136 C7.216,20.136 8.16,21.048 8.16,22.328 C8.16,23.608 7.216,24.52 5.68,24.52 L2.272,24.52 Z" id="Shape"></path>
                    <polygon id="Path" points="21.248 28.568 14.688 28.568 14.688 24.904 20.768 24.904 20.768 23.768 14.688 23.768 14.688 20.136 21.232 20.136 21.232 19 13.424 19 13.424 29.72 21.248 29.72"></polygon>
                    <path d="M34.528,29.72 L30.384,25.128 L30.576,25.128 C32.672,25.128 34.08,23.896 34.08,22.056 C34.08,20.216 32.672,19 30.576,19 L25.616,19 L25.616,29.72 L26.88,29.72 L26.88,25.128 L28.848,25.128 L32.944,29.72 L34.528,29.72 Z M26.88,23.976 L26.88,20.136 L30.576,20.136 C31.92,20.136 32.816,20.904 32.816,22.056 C32.816,23.208 31.92,23.976 30.576,23.976 L26.88,23.976 Z" id="Shape"></path>
                    <path d="M43.216,28.744 C40.816,28.744 38.928,26.824 38.928,24.36 C38.928,21.88 40.816,19.976 43.216,19.976 C45.072,19.976 46.56,20.968 47.104,22.696 L48.32,22.344 C47.664,20.184 45.68,18.792 43.216,18.792 C40.096,18.792 37.648,21.24 37.648,24.36 C37.648,27.48 40.096,29.928 43.216,29.928 C45.68,29.928 47.664,28.536 48.32,26.296 L47.104,26.008 C46.544,27.768 45.072,28.744 43.216,28.744 Z" id="Path"></path>
                    <polygon id="Path" points="60.432 28.568 53.872 28.568 53.872 24.904 59.952 24.904 59.952 23.768 53.872 23.768 53.872 20.136 60.416 20.136 60.416 19 52.608 19 52.608 29.72 60.432 29.72"></polygon>
                    <polygon id="Path" points="74.16 19 72.896 19 72.896 27.608 65.888 19 64.8 19 64.8 29.72 66.064 29.72 66.064 21.208 73.072 29.72 74.16 29.72"></polygon>
                    <polygon id="Path" points="87.184 20.136 87.184 19 77.952 19 77.952 20.136 81.936 20.136 81.936 29.72 83.216 29.72 83.216 20.136"></polygon>
                    <polygon id="Path" points="9.968 38 8.704 38 8.704 42.752 2.272 42.752 2.272 38 1.008 38 1.008 48.72 2.272 48.72 2.272 43.888 8.704 43.888 8.704 48.72 9.968 48.72"></polygon>
                    <path d="M24.304,48.72 L19.504,38 L18.336,38 L13.536,48.72 L14.896,48.72 L16.096,46 L21.744,46 L22.944,48.72 L24.304,48.72 Z M21.248,44.864 L16.592,44.864 L18.928,39.568 L21.248,44.864 Z" id="Shape"></path>
                    <path d="M27.872,38 L27.872,48.72 L29.136,48.72 L29.136,44.656 L32.544,44.656 C34.832,44.656 36.272,43.296 36.272,41.328 C36.272,39.36 34.832,38 32.544,38 L27.872,38 Z M29.136,43.52 L29.136,39.136 L32.544,39.136 C34.08,39.136 35.024,40.048 35.024,41.328 C35.024,42.608 34.08,43.52 32.544,43.52 L29.136,43.52 Z" id="Shape"></path>
                    <path d="M40.288,38 L40.288,48.72 L41.552,48.72 L41.552,44.656 L44.96,44.656 C47.248,44.656 48.688,43.296 48.688,41.328 C48.688,39.36 47.248,38 44.96,38 L40.288,38 Z M41.552,43.52 L41.552,39.136 L44.96,39.136 C46.496,39.136 47.44,40.048 47.44,41.328 C47.44,42.608 46.496,43.52 44.96,43.52 L41.552,43.52 Z" id="Shape"></path>
                    <polygon id="Path" points="53.968 48.72 53.968 38 52.704 38 52.704 48.72"></polygon>
                    <polygon id="Path" points="66.592 47.568 60.032 47.568 60.032 43.904 66.112 43.904 66.112 42.768 60.032 42.768 60.032 39.136 66.576 39.136 66.576 38 58.768 38 58.768 48.72 66.592 48.72"></polygon>
                    <path d="M79.872,48.72 L75.728,44.128 L75.92,44.128 C78.016,44.128 79.424,42.896 79.424,41.056 C79.424,39.216 78.016,38 75.92,38 L70.96,38 L70.96,48.72 L72.224,48.72 L72.224,44.128 L74.192,44.128 L78.288,48.72 L79.872,48.72 Z M72.224,42.976 L72.224,39.136 L75.92,39.136 C77.264,39.136 78.16,39.904 78.16,41.056 C78.16,42.208 77.264,42.976 75.92,42.976 L72.224,42.976 Z" id="Shape"></path>
                </g>
                <path d="M0.532398183,19.8928685 C-2.28825356,33.4065233 6.37937981,46.6470222 19.892596,49.4676528 L19.892596,49.4676528 C33.4058121,52.2882834 46.6469501,43.6196353 49.4676018,30.1070603 L49.4676018,30.1070603 C52.2882536,16.5934055 43.6206202,3.35182688 30.107404,0.532275939 L30.107404,0.532275939 C28.3853219,0.172746755 26.6664788,0 24.9746276,0 L24.9746276,0 C13.3875522,-0.00053983361 2.99351805,8.10182282 0.532398183,19.8928685 M28.8660361,30.9037058 C30.3447508,29.9545957 31.4668152,28.187101 31.9537488,26.0501178 L31.9537488,26.0501178 C32.0042336,25.8275604 32.0503756,25.5969002 32.0954319,25.372182 L32.0954319,25.372182 L32.1014032,25.340311 C32.3511127,24.0876153 32.743591,22.8192542 33.912883,22.0246379 L33.912883,22.0246379 C35.2151726,21.1387298 36.8860551,21.3850554 37.8854361,22.6123622 L37.8854361,22.6123622 C38.1519739,22.9391759 38.3636842,23.3221691 38.5145956,23.7499979 L38.5145956,23.7499979 C38.6969922,24.2696586 38.7887333,24.8427979 38.7850467,25.4537504 L38.7850467,25.4537504 C38.7626766,29.6969261 36.3318085,34.1210647 32.736534,36.4627791 L32.736534,36.4627791 C32.7007061,36.4865474 32.6719352,36.5038334 32.6431643,36.5221998 L32.6431643,36.5221998 L32.5568517,36.5778391 C32.5335092,36.5945849 32.5101668,36.6107906 32.4857387,36.626456 L32.4857387,36.626456 L32.4488251,36.6502243 C30.3072944,38.0557931 27.6348595,38.7850467 24.9939096,38.7850467 L24.9939096,38.7850467 C23.2291146,38.7850467 21.4789764,38.4598536 19.9085205,37.7932618 L19.9085205,37.7932618 C19.3428741,37.5534184 18.8505121,37.2422702 18.4444626,36.8690004 L18.4444626,36.8690004 C18.1095261,36.5616335 17.840817,36.2159132 17.6443064,35.8431836 L17.6443064,35.8431836 C16.9098346,34.4435569 17.3457406,32.819212 18.6800582,31.9819208 L18.6800582,31.9819208 C19.8775783,31.2288989 21.2037531,31.3747496 22.4577292,31.6443033 L22.4577292,31.6443033 L22.4859573,31.6502454 C22.7117816,31.6988623 22.9446628,31.7485596 23.17103,31.7912344 L23.17103,31.7912344 C23.7822755,31.9052141 24.3859212,31.9613936 24.9711101,31.9613936 L24.9711101,31.9613936 C26.4579675,31.9613936 27.8215988,31.5983874 28.8660361,30.9037058" id="Mask"></path>
            </g>
        </g>
    </g>
</svg>