<svg width="625" height="606" viewBox="0 0 625 606" fill="none" xmlns="http://www.w3.org/2000/svg">
<path fill-rule="evenodd" clip-rule="evenodd" d="M163.603 567.722L228.101 594.023L232.727 594.699C308.591 605.64 399.96 611.142 470.659 575.162C524.606 547.708 565.729 496.167 589.84 439.598L599.099 417.948C616.327 377.468 623.191 357.769 624.728 305.916C625.949 264.703 597.561 187.574 577.313 153.473C558.954 122.554 497.768 66.6592 466.456 49.8798C396.91 12.6133 375.441 11.7779 294.878 11.5527C214.315 11.3287 143.092 49.3682 81.8781 107.702C20.6649 166.036 -13.4843 256.805 5.72808 335.94L8.78596 348.604C16.4453 380.207 24.6807 411.17 43.9884 436.432C82.5519 486.889 107.865 538.142 163.603 567.722Z" fill="#F4F3E9"/>
</svg>
