<svg width="625" height="610" viewBox="0 0 625 610" fill="none" xmlns="http://www.w3.org/2000/svg">
<path fill-rule="evenodd" clip-rule="evenodd" d="M422.959 584.681L481.907 546.541L485.183 543.106C538.807 486.681 597.359 414.285 611.047 334.995C621.492 274.492 605.397 210.665 575.255 158.003L563.739 137.822C542.155 100.158 530.749 83.0869 490.915 51.8241C459.255 26.978 381.798 5.84851 342.984 2.8736C307.792 0.177031 227.555 18.4597 195.786 34.6558C125.225 70.628 111.827 87.9027 63.8353 154.412C15.844 220.923 3.46342 301.838 12.9708 386.212C22.4791 470.586 73.5371 551.333 147.125 581.211L158.89 586.007C188.27 597.95 217.489 609.046 248.799 607.687C311.336 604.971 366.634 613.677 422.959 584.681Z" stroke="#291217" stroke-width="3.92"/>
</svg>
