<svg width="64" height="64" viewBox="0 0 64 64" fill="none" xmlns="http://www.w3.org/2000/svg">
<path d="M4.51086 18.6775C6.06055 15.8563 8.42134 13.3343 11.5058 11.0645L11.9943 10.71C14.0337 9.25157 16.1534 8.00254 19.5421 6.19744L20.5804 5.647L22.8727 5.09515L25.6511 4.41702C26.1278 4.30418 26.5312 4.21239 26.9697 4.11646C27.1131 4.08508 27.283 4.06326 27.5166 4.04676L28.1141 4.01767L28.2257 4.01334C28.9545 3.98398 29.7108 4.00331 30.4994 4.06902C32.0187 4.19549 33.6158 4.49066 35.4406 4.95928L36.1324 5.14119L36.8224 5.33151C38.1353 5.70227 39.5351 6.14628 41.5715 6.82336L45.0595 7.98416C45.2109 8.0336 45.3612 8.08241 45.5174 8.13294C49.5896 9.44965 52.8518 11.2611 55.2717 13.7133C57.2985 15.767 58.9007 18.3764 59.9886 21.3227C61.0601 24.2239 61.6066 27.3446 61.5983 30.4811C61.5893 33.8811 60.8781 37.3213 59.5302 40.5708C58.1629 43.8666 56.1661 46.9449 53.67 49.6299C51.6996 51.7492 49.4486 53.5457 45.8336 56.0395C43.6957 57.5146 41.9137 58.4646 40.0733 59.034C39.1425 59.3219 38.1388 59.5532 36.9485 59.7641L36.4932 59.8423C34.7068 60.1397 33.7181 60.2611 32.6689 60.2765C30.0857 60.3144 27.3184 60.0235 24.2809 59.4372C22.822 59.1557 21.7198 58.8809 20.713 58.5259C19.9063 58.2415 19.1163 57.8461 17.9005 57.149C15.3011 55.6588 12.8804 53.9478 10.7252 52.064C9.58074 51.0635 8.77872 50.2547 8.13748 49.4143C7.36775 48.4058 6.63082 47.229 5.87294 45.8319C4.95615 44.1415 4.33697 42.3663 3.64305 39.6329L3.08692 37.3653C2.67401 35.6496 2.48426 34.7382 2.32351 33.6476C2.06282 31.8786 1.95807 30.1199 2.01512 28.3963C2.13355 24.8157 2.96537 21.4917 4.51086 18.6775Z" fill="#291217"/>
<path fill-rule="evenodd" clip-rule="evenodd" d="M33.1705 40.6996C33.7656 41.2947 34.7304 41.2947 35.3255 40.6996C35.8856 40.1395 35.9186 39.2519 35.4244 38.6533L35.3255 38.5446L28.5011 31.7201L35.3255 24.8963C35.8856 24.3362 35.9186 23.4486 35.4244 22.85L35.3255 22.7413C34.7655 22.1812 33.8779 22.1483 33.2792 22.6425L33.1705 22.7413L25.2689 30.643C24.7088 31.203 24.6759 32.0906 25.1701 32.6893L25.2689 32.798L33.1705 40.6996Z" fill="#F4F3E9"/>
</svg>
